<svg xmlns="http://www.w3.org/2000/svg" viewBox="0 0 242.34891 248.09762">
  <defs>
    <clipPath id="a">
      <path d="M44.4492 749.556H183.239V617.725H44.4492v131.831z"/>
    </clipPath>
  </defs>
  <g clip-path="url(#a)" transform="matrix(1.25 0 0 -1.25 -22.19 936.95)">
    <path fill="#1d1d1b" d="M183.05805 686.7466v-6.57c-4.049-1.138-7.596-2.788-11.634-3.926-.345-2.22-.758-4.383-1.316-6.38 2.677-3.357 6.47-5.555 9.18-8.879-.959-1.74-1.673-3.792-2.454-5.745-2.566.257-6.458.357-9.515.514-.948.045-2.018.39-2.788.156-1.45-.446-1.428-2.331-2.465-3.291-1.617 1.172-2.889 2.7-3.926 4.44 4.16 6.603 7.417 14.199 7.875 24.104.769 17.021-6.838 29.904-15.583 38.181.189 2.833.669 5.343.825 8.209 3.403 1.629 6.905 3.157 10.162 4.93 1.573-1.539 3.29-2.933 4.596-4.763-1.138-2.498-2.577-5.499-3.949-8.376-.413-.881-1.327-2.153-1.305-2.778.067-1.784 3.212-3.703 3.614-5.555 4.082.324 8.287.547 12.615.659.647-2.041 1.539-3.837 2.298-5.745-2.822-3.078-6.202-5.622-9.18-8.533.558-2.019.904-4.227 1.316-6.38 3.681-1.628 7.808-2.822 11.634-4.272m-20.47655-40.1885c1.35-2.242 2.309-4.896 3.614-7.217-1.383-1.773-2.978-3.368-4.763-4.74-3.602 2.03-7.641 3.614-11.31 5.577-1.852-.982-3.413-2.265-5.254-3.302.078-4.495.413-8.756.658-13.117-2.141-.558-3.848-1.595-5.9-2.276-3.212 3.001-5.845 6.615-9.013 9.66-1.829-.346-3.569-.803-5.577-.981-1.628-4.005-3.056-8.188-4.439-12.437h-6.548c-1.517 4.104-2.967 8.276-4.428 12.437-2.242-.19-3.737 1.227-5.41.981-1.405-.179-3.859-3.759-4.762-4.752-1.774-1.918-3.101-3.536-4.418-4.908-1.996.804-4.004 1.573-5.911 2.454.089 4.406.357 8.6.658 12.783-1.517 1.394-3.648 2.164-5.087 3.614-3.803-1.885-7.774-3.591-11.477-5.577-1.762 1.472-3.536 2.922-4.752 4.919 6.96.915 11.534 4.216 15.582 8.031.134.044.145-.067.157-.145 8.276-7.261 19.999-13.497 35.905-12.805 10.719.48 18.895 4.406 25.577 9.191 2.353-1.394 6.447-.089 9.681.647 2.677.602 5.265 1.06 7.217 1.963"/>
    <path fill="#1d1d1b" d="M159.793 688.71c1.183-9.849-1.238-18.984-5.075-25.911-.636 1.807-2.923 4.874-2.956 7.217-.022 1.617 1.439 4.495 1.807 6.402 1.417 7.317.402 15.404-2.297 21.628-.536 1.227-1.741 2.71-1.975 3.949-.569 3.145.892 6.034.491 9.168.201.034.301-.022.335-.145 4.573-5.398 8.566-13.061 9.67-22.308"/>
    <path fill="#d20a11" d="M155.5322 656.396c1.907-2.632 4.573-4.573 6.392-7.696-2.131-.68-4.373-1.261-6.883-1.796-2.264-.513-5.276-1.595-7.217-1.316-1.293.201-2.877 2.565-3.77 3.759-3.201 4.272-5.8 9.904-7.216 15.426-2.287 8.946-2.466 18.326-2.454 27.383-3.112-9.046-5.845-18.303-11.812-25.074-1.953-2.242-5.209-5.243-8.522-4.439-4.774 1.115-6.872 8.175-8.366 12.949-1.863 5.946-3.358 11.155-3.603 17.524-3.168-11.489-5.767-23.012-11.478-32.437-5.197-8.566-12.124-18.839-25.096-18.872-6.135 0-10.82 2.286-14.267 5.432-3.167 2.877-6.279 7.317-6.714 12.916-.625 8.176 2.676 14.98 6.224 19.04 2.61 3.001 7.015 5.734 12.136 6.883 2.041.468 4.583.557 4.918-.637.524-1.873-2.699-3.29-3.937-4.104-4.451-3.023-9.492-7.027-10.162-13.943-.714-7.317 2.923-14.456 10.329-14.768 9.448-.368 14.144 6.001 17.378 12.314 6.849 13.318 9.314 29.983 12.304 47.049.658 3.792 1.238 8.376 2.13 12.637.748 3.559 2.353 8.344 5.086 9.682 3.547 1.707 9.091.168 10.496-2.476 1.06-1.997.859-5.867.982-9.001.391-9.727-.011-20.257 4.261-25.756 7.652 7.775 12.18 20.692 14.924 33.764.993 4.796 1.339 9.95 3.937 12.147 2.778 2.353 12.46 2.119 14.1-.837 1.461-2.598.067-9.38-.335-12.939-1.383-12.403-2.744-26.156-2.131-39.184.692-14.378 2.109-24.963 8.366-33.63"/>
    <path fill="#1d1d1b" d="M138.4775 653.7861c1.138-1.763 2.197-3.625 3.279-5.41-7.362-4.662-16.865-8.644-28.856-7.373-10.585 1.116-18.995 6.034-24.929 11.478 1.059 1.729 2.364 3.212 3.279 5.064 6.202-5.387 14.4-10.463 26.079-10.508 8.365 0 15.526 2.767 21.148 6.749m-8.3657 82.3179c-.245-1.773-.636-3.413-.993-5.098-3.903.848-8.577 1.707-12.939 1.484-.602-.033-1.494-.379-2.13-.156-.714.234-2.175 2.71-3.279 3.413-.859.58-1.439.58-2.465 1.026.323.257 1.026.156 1.483.324 1.484 4.127 2.9 8.332 4.428 12.459h6.38c1.529-4.127 2.956-8.332 4.44-12.459 1.718-.313 3.435-.625 5.075-.993m-2.4541-10.9868c-.368-2.22-1.093-4.049-1.64-6.068-3.245.803-6.982 1.104-11.153.993-.134 2.03-.079 4.272-.324 6.213 4.618.301 9.247-.223 13.117-1.138m-32.626 20.6572c2.61-2.755 5.678-5.889 7.697-8.678-5.767-.747-7.418-5.61-8.845-10.675-13.43-7.718-22.822-19.497-25.254-38.191-.256-.379-1.171.368-1.806.48-6.213 1.048-11.914-3.76-15.416-5.411v3.615c3.893 1.349 7.764 2.733 11.645 4.104-.189 2.443 1.685 4.473 1.316 6.381-.245 1.215-3.681 3.435-4.595 4.271-1.807 1.64-3.179 3.124-4.596 4.261.859 1.93 1.662 3.905 2.465 5.89 4.172-.134 8.288-.335 12.281-.658 1.595 1.539 2.632 3.625 3.949 5.409-1.674 3.793-3.558 7.396-5.243 11.155.759 1.651 2.989 3.246 4.428 4.762 3.905-1.717 7.63-3.625 11.478-5.409 1.952.825 3.28 2.298 5.243 3.123-.067 4.506-.346 8.823-.659 13.117 2.019.77 3.982 1.573 5.912 2.454"/>
    <path fill="#1d1d1b" d="M91.9087 717.8892c.034.178.257.123.324.256-.502-2.453-.246-6.068-1.305-8.767-.647-1.684-2.688-3.1-3.77-4.606-5.154-7.128-9.437-21.104-4.919-32.459-.949-2.61-2.153-4.941-3.28-7.373-4.685 8.087-5.521 21.159-2.621 30.975 2.788 9.481 8.8 16.988 15.571 21.974M74.854 659.6753c-.959-1.707-2.8-2.532-4.439-3.603-3.414.324-6.302-.881-9.013-.468-3.145.435-4.004 3.882-5.075 6.703 2.487 2.722 5.544 4.852 8.042 7.563-.569 1.997-.903 4.205-1.316 6.38-.312.279-.859.335-1.316.48 1.851 1.986 4.562 3.101 6.558 4.93.926-8.6 2.822-16.196 6.559-21.985"/>
  </g>
  <path fill="none" stroke="#000" stroke-miterlimit="10" d="M180.2192204 126.07042c-2.66375.85-5.46625 1.575-8.6025 2.245-2.83.64125-6.595 1.99375-9.02125 1.645-1.6175-.25125-3.5975-3.2075-4.7125-4.69875-4.00125-5.34-7.25-12.38125-9.02125-19.2825-2.85875-11.1825-3.08125-22.9075-3.0675-34.23-3.89 11.3075-7.30625 22.88-14.765 31.34375-2.44 2.8025-6.51125 6.5525-10.6525 5.54875-5.9675-1.39375-8.58875-10.22-10.4575-16.1875-2.32875-7.43125-4.19625-13.9425-4.5025-21.90375-3.96 14.36125-7.20875 28.76375-14.3475 40.54625-6.4975 10.7075-15.15625 23.54875-31.37125 23.59-7.66875 0-13.52375-2.85875-17.8325-6.79-3.96-3.5975-7.85-9.14625-8.39375-16.14625-.78-10.21875 3.34625-18.725 7.78-23.8 3.2625-3.75 8.77-7.16625 15.17-8.6025 2.55125-.585 5.73-.6975 6.14875.795.655 2.3425-3.37375 4.1125-4.9225 5.13125-5.5625 3.77875-11.865 8.78375-12.70125 17.42875-.8925 9.14625 3.6525 18.06875 12.91125 18.46 11.80875.46 17.67875-7.50125 21.7225-15.39375 8.56-16.6475 11.6425-37.4775 15.37875-58.81.8225-4.74 1.5475-10.47125 2.6625-15.7975.935-4.4475 2.9425-10.42875 6.35875-12.10125 4.43375-2.13375 11.3625-.21 13.12 3.095 1.32375 2.495 1.07375 7.33375 1.22625 11.25125.48875 12.15875-.01375 25.32 5.32625 32.195 9.565-9.71875 15.22625-25.865 18.655-42.20625 1.24125-5.995 1.67375-12.43625 4.9225-15.1825 3.47125-2.9425 15.57375-2.65 17.62375 1.045 1.82625 3.24875.08375 11.72625-.41875 16.17375-1.72875 15.505-3.43 32.69625-2.6625 48.98125.865 17.97125 2.635 31.20375 10.45625 42.0375 2.385 3.29 5.7175 5.71625 7.99 9.62z"/>
  <path d="M20.734375 186.25c-1.424967 0-2.755941.36068-3.994141 1.08008-1.231282.71248-2.200683 1.67993-2.90625 2.9043-.705566 1.22436-1.058593 2.56779-1.058593 4.02734 0 2.17895.758544 4.06046 2.273437 5.64453 1.514892 1.58407 3.417399 2.375 5.707031 2.375 2.185872 0 4.041586-.77189 5.570313-2.31445 1.535645-1.54256 2.304687-3.42692 2.304687-5.6543 0-2.24813-.77954-4.15348-2.335937-5.7168-1.549479-1.56331-3.402344-2.3457-5.560547-2.3457zm181.699215 0c-1.18286 0-2.17895.38168-2.98828 1.14258-.8024.75399-1.20312 1.6604-1.20312 2.71875 0 .73323.24235 1.46883.72656 2.20898.48421.73324 1.55664 1.77897 3.2168 3.13477.87158.71248 1.43546 1.24007 1.6914 1.58594.25594.34586.38282.69319.38282 1.03906 0 .38045-.16886.71533-.50782 1.00586-.33894.29052-.75781.43554-1.25586.43554-.95458 0-1.79801-.67456-2.53125-2.02343l-2.4375 1.47265c.57414 1.14136 1.26204 1.97909 2.06446 2.51172.80932.53264 1.75578.79883 2.84179.79883 1.39039 0 2.51816-.40837 3.38282-1.22461.86466-.81625 1.29687-1.84953 1.29687-3.10156 0-.64332-.12403-1.23585-.37305-1.77539-.2421-.54648-.65616-1.11605-1.24414-1.71094-.23519-.24211-.9069-.82699-2.01367-1.75391-1.18286-1.00301-1.89176-1.65657-2.12695-1.96093-.17293-.22828-.25977-.47063-.25977-.72657 0-.25594.12118-.48494.36328-.68554.24211-.20752.55314-.31055.9336-.31055.78166 0 1.5507.52669 2.30469 1.57813l2.14648-1.9004c-.80241-.93383-1.5485-1.5769-2.24023-1.92968-.68482-.35278-1.40902-.5293-2.16993-.5293zm28.90235 0c-1.42497 0-2.75594.36068-3.99414 1.08008-1.23128.71248-2.20069 1.67993-2.90625 2.9043-.70557 1.22436-1.0586 2.56779-1.0586 4.02734 0 2.17895.75855 4.06046 2.27344 5.64453 1.51489 1.58407 3.4174 2.375 5.70703 2.375 2.18588 0 4.04159-.77189 5.57031-2.31445 1.53565-1.54256 2.30469-3.42692 2.30469-5.6543 0-2.24813-.77954-4.15348-2.33594-5.7168-1.54947-1.56331-3.40234-2.3457-5.56054-2.3457zM0 186.63477v15.26367h2.90625v-6.46485c1.480306 0 2.5002441-.0792 3.0605469-.23828.9545898-.27669 1.7083333-.76904 2.2617187-1.47461.5603028-.70556.8417969-1.59098.8417969-2.65625 0-.9615-.2156575-1.78393-.6445313-2.46875-.4219563-.69173-1.0020345-1.18978-1.7421874-1.49414-.7332358-.31128-1.934489-.46679-3.6015626-.46679H0zm32.96875 0v15.26367h7.138672v-2.77149H35.875v-12.49218h-2.90625zm9.849609 0l4.482422 8.65429v6.60938h2.925781v-6.60938l4.462891-8.65429h-3.082031l-2.822266 5.47851-2.84375-5.47851h-3.123047zm14.382813 0v2.86328h2.708984v12.40039h2.947266v-12.40039h2.779297v-2.86328h-8.435547zm12.039062 0v15.26367h8.332032v-2.85352H72.125v-4.01562h5.447266v-2.79102H72.125v-2.75976h5.447266v-2.84375h-8.332032zm12.640625 0v15.26367h8.332032v-2.85352h-5.449219v-4.01562h5.449219v-2.79102h-5.449219v-2.75976h5.449219v-2.84375h-8.332032zm12.650391 0v15.26367h2.935547v-6.77539l4.710933 6.77539h3.44532l-5.853519-8.45703 5.333989-6.80664h-3.4961l-4.140623 5.25v-5.25H94.53125zm14.79687 0v15.26367h2.9375v-6.77539l4.71094 6.77539h3.44336l-5.85156-8.45703 5.33398-6.80664h-3.49804l-4.13868 5.25v-5.25h-2.9375zm19.42579 0l-5.88282 15.26367h3.01953l1.2461-3.14453h6.22461l1.19336 3.14453h3.01953l-5.87305-15.26367h-2.94726zm12.8789 0v15.26367h2.90625v-6.46485h.26953l3.4336 6.46485h3.17578l-3.61133-6.78711c.96843-.34587 1.69068-.85441 2.16797-1.52539.48421-.6779.72656-1.51847.72656-2.52149 0-.95458-.21655-1.77986-.65234-2.47851s-1.01497-1.1967-1.73438-1.49414c-.71248-.30436-1.91178-.45703-3.59961-.45703h-3.08203zm13.52344 0v15.26367h2.88281v-15.26367h-2.88281zm9.21484 0l-2.63476 15.26367h2.83203l1.66992-9.64063 3.20703 9.64063h2.5625l3.24805-9.64063 1.63867 9.64063h2.80274l-2.57422-15.26367h-2.80078l-3.58008 10.64648-3.52735-10.64648h-2.84375zm19.15625 0v9.09961c0 1.81925.17652 3.11303.5293 3.88085.35278.76091.93766 1.39633 1.75391 1.90821.82316.50496 1.78775.75781 2.89453.75781.84391 0 1.58431-.13167 2.2207-.39453.63639-.26977 1.19548-.68099 1.67969-1.23438.49113-.55338.82316-1.12777.99609-1.72265.17294-.59489.25977-1.65967.25977-3.19531v-9.09961h-2.91602v9.51367c0 1.02376-.0715 1.71932-.21679 2.08594-.13835.3597-.39405.65739-.76758.89257-.36662.2352-.80648.35352-1.31836.35352-.48422 0-.89828-.10498-1.24414-.3125-.33895-.21444-.5861-.49683-.73828-.84961-.14527-.35279-.2168-.95581-.2168-1.80664v-9.87695h-2.91602zm27.9668 0v15.26367h8.33203v-2.85352h-5.44726v-4.01562h5.44726v-2.79102h-5.44726v-2.75976h5.44726v-2.84375h-8.33203zm-190.791015 2.45898c1.397298 0 2.583252.50569 3.558594 1.51563.975341 1.003 1.46289 2.23095 1.46289 3.68359 0 1.45955-.482747 2.68555-1.451171 3.68164-.968425.99609-2.141033 1.49414-3.517579 1.49414-1.217448 0-2.297526-.38257-3.238281-1.15039-1.210531-.98226-1.816406-2.31803-1.816406-4.00586 0-1.51489.481852-2.76383 1.443359-3.74609.961508-.98226 2.147461-1.47266 3.558594-1.47266zm210.601565 0c1.3973 0 2.58325.50569 3.55859 1.51563.97535 1.003 1.46289 2.23095 1.46289 3.68359 0 1.45955-.48274 2.68555-1.45117 3.68164-.96843.99609-2.14103 1.49414-3.51758 1.49414-1.21744 0-2.29753-.38257-3.23828-1.15039-1.21053-.98226-1.81641-2.31803-1.81641-4.00586 0-1.51489.48186-2.76383 1.44336-3.74609.96151-.98226 2.14746-1.47266 3.5586-1.47266zm-228.39844.38477h.8203125c.8992513 0 1.5136719.10018 1.8457031.30078.456543.26977.6855469.69718.6855469 1.28515 0 .33895-.083984.63094-.25.87305-.1590983.23519-.3804525.40405-.6640625.50781-.2836101.10376-.7873535.15625-1.5136719.15625H2.90625v-3.12304zm141.63281 0h.79883c.77474 0 1.30713.0553 1.59766.16601.29052.10376.52238.27832.69531.52735.17293.2421.25976.5293.25976.86132 0 .56031-.17651.96297-.52929 1.20508-.34586.2421-.98324.36328-1.91016.36328h-.91211v-3.12304zm-14.29101 1.20312l2.02343 5.24024h-4.05664l2.03321-5.24024zm50.92187 17.8125l-2.48047 4.06641h2.03516l3.79687-4.06641h-3.35156zm-160.435545 4.86524c-1.424967-.00001-2.755941.36067-3.994141 1.08007-1.231282.71248-2.200683 1.67993-2.90625 2.9043-.705566 1.22437-1.058593 2.56779-1.058593 4.02734 0 2.17896.758544 4.06047 2.273437 5.64453 1.514892 1.58407 3.417399 2.375 5.707031 2.375 2.185872 0 4.041586-.76993 5.570313-2.3125 1.535645-1.54256 2.304687-3.42887 2.304687-5.65624 0-2.24813-.77954-4.15349-2.335937-5.7168-1.549479-1.56332-3.402344-2.3457-5.560547-2.3457zm146.726565 0c-1.18286 0-2.17896.38167-2.98828 1.14257-.80242.75399-1.20313 1.6604-1.20313 2.71875 0 .73324.24235 1.46883.72656 2.20899.48422.73324 1.55665 1.77897 3.2168 3.13476.87159.71248 1.43547 1.24007 1.69141 1.58594.25594.34587.38281.6932.38281 1.03906 0 .38046-.16887.71534-.50781 1.00586-.33896.29053-.75782.43555-1.25586.43555-.95459 0-1.79801-.67456-2.53125-2.02344l-2.43946 1.47461c.57414 1.14136 1.264 1.97713 2.06641 2.50977.80933.53263 1.75578.79882 2.8418.79882 1.39038.00001 2.51814-.40836 3.38281-1.2246.86466-.81624 1.29687-1.84953 1.29687-3.10157 0-.64331-.12402-1.23388-.37304-1.77343-.24211-.54647-.65812-1.11801-1.2461-1.7129-.23518-.2421-.90494-.82698-2.01171-1.7539-1.18286-1.00301-1.89177-1.65658-2.12696-1.96094-.17293-.22827-.25976-.47062-.25976-.72656s.12117-.48299.36328-.6836c.2421-.20751.55314-.3125.93359-.3125.78166 0 1.54875.5267 2.30274 1.57813l2.14843-1.89844c-.80241-.93384-1.55046-1.57886-2.24218-1.93164-.68482-.35278-1.40707-.52929-2.16797-.52929zM0 213.74414v15.26367h2.90625v-6.46484c1.480306 0 2.5002441-.0792 3.0605469-.23828.9545898-.2767 1.7083333-.76905 2.2617187-1.47461.5603028-.70557.8417969-1.59099.8417969-2.65625 0-.96151-.2156575-1.78394-.6445313-2.46875-.4219563-.69174-1.0020345-1.18978-1.7421874-1.49414-.7332358-.31128-1.934489-.4668-3.6015626-.4668H0zm32.96875 0v15.26367h7.138672v-2.77148H35.875v-12.49219h-2.90625zm9.849609 0l4.482422 8.6543v6.60937h2.925781v-6.60937l4.462891-8.6543h-3.082031l-2.822266 5.47852-2.84375-5.47852h-3.123047zm14.382813 0v2.86328h2.708984v12.40039h2.947266v-12.40039h2.779297v-2.86328h-8.435547zm12.039062 0v15.26367h8.332032v-2.85351H72.125v-4.01563h5.447266v-2.79101H72.125v-2.75977h5.447266v-2.84375h-8.332032zm12.650391 0v15.26367h2.935547v-6.77539l4.710937 6.77539h3.445313l-5.851563-8.45703 5.332032-6.80664h-3.496094l-4.140625 5.25v-5.25h-2.935547zm19.425785 0l-5.882816 15.26367h3.019531l1.244141-3.14453h6.226564l1.19336 3.14453h3.01953l-5.87305-15.26367h-2.94726zm12.8789 0v15.26367h2.9043v-6.46484h.26953l3.43555 6.46484h3.17578l-3.61133-6.78711c.96843-.34586 1.69068-.85441 2.16797-1.52539.48421-.6779.72656-1.51848.72656-2.52148 0-.9546-.2185-1.77987-.65429-2.47852-.43579-.69864-1.01303-1.19669-1.73243-1.49414-.71248-.30436-1.91178-.45703-3.59961-.45703h-3.08203zm15.20313 0l-2.63672 15.26367h2.83398l1.66992-9.64062 3.20704 9.64062h2.5625l3.24804-9.64062 1.63868 9.64062h2.80078l-2.57227-15.26367h-2.80273l-3.57813 10.64648-3.5293-10.64648h-2.84179zm19.15625 0v9.09961c0 1.81925.17651 3.11304.52929 3.88086.35278.76091.93571 1.39632 1.75196 1.9082.82316.50497 1.78972.75781 2.89648.75781.84392 0 1.58236-.13167 2.21875-.39453.6364-.26977 1.19743-.68098 1.68164-1.23437.49114-.55339.82316-1.12777.9961-1.72266.17292-.59489.25976-1.65967.25976-3.19531v-9.09961h-2.91601v9.51563c0 1.02376-.0715 1.71736-.2168 2.08398-.13835.3597-.396.65739-.76953.89258-.36662.23519-.80453.35351-1.31641.35351-.48421 0-.90023-.10302-1.24609-.31054-.33895-.21444-.58415-.49879-.73633-.85157-.14527-.35278-.21875-.95386-.21875-1.80468v-9.87891h-2.91406zm27.96679 0v15.26367h8.33204v-2.85351h-5.44727v-4.01563h5.44727v-2.79101h-5.44727v-2.75977h5.44727v-2.84375h-8.33204zm12.64063 0v15.26367h8.33203v-2.85351h-5.44726v-4.01563h5.44726v-2.79101h-5.44726v-2.75977h5.44726v-2.84375h-8.33203zm11.125 0v2.86328h2.70703v12.40039h2.94727v-12.40039h2.78125v-2.86328h-8.43555zm-179.583985 2.45898c1.397298 0 2.583252.5057 3.558594 1.51563.975341 1.00301 1.46289 2.23095 1.46289 3.68359 0 1.45956-.482747 2.6875-1.451171 3.6836-.968425.99609-2.141033 1.49414-3.517579 1.49414-1.217448 0-2.297526-.38453-3.238281-1.15235-1.210531-.98226-1.816406-2.31803-1.816406-4.00585 0-1.5149.481852-2.76384 1.443359-3.7461.961508-.98226 2.147461-1.47266 3.558594-1.47266zm-17.796875.38477h.8203125c.8992513 0 1.5136719.10018 1.8457031.30078.456543.26978.6855469.69718.6855469 1.28516 0 .33894-.083984.63094-.25.87305-.1590983.23518-.3804525.40405-.6640625.50781-.2836101.10376-.7873535.15625-1.5136719.15625H2.90625v-3.12305zm114.19336 0h.79883c.77474 0 1.30908.0553 1.59961.16602.29052.10376.52042.28027.69336.52929.17293.24211.25976.5293.25976.86133 0 .5603-.17652.96102-.52929 1.20313-.34587.2421-.98129.36328-1.90821.36328h-.91406v-3.12305zm-14.28906 1.20313l2.02343 5.24023h-4.05664l2.03321-5.24023zm-66.332034 21.81836c-.754394-.00001-1.459717.18945-2.115235.57031-.651855.37719-1.163574.89087-1.537109 1.53906-.373535.64819-.560547 1.35815-.560547 2.13086 0 1.15357.401124 2.14966 1.203125 2.98828.802002.83863 1.809326 1.25781 3.021484 1.25781 1.157227 0 2.139893-.40795 2.949219-1.22461.812988-.81664 1.21875-1.81494 1.21875-2.99414 0-1.19018-.4104-2.19775-1.234375-3.02539-.820312-.82763-1.802734-1.24218-2.945312-1.24218zm36.236328 0c-.783692 0-1.516113.18945-2.197266.57031-.67749.38086-1.200195.8855-1.566406 1.51172-.362549.62622-.542969 1.34277-.542969 2.14843 0 1.24512.398926 2.26612 1.197266 3.06446.802002.79468 1.831787 1.1914 3.08789 1.1914.681153 0 1.287354-.11059 1.81836-.33398.531005-.22705 1.094482-.63257 1.691406-1.21484l-1.042969-1.0879c-.443115.43946-.85083.74366-1.220703.91211-.369873.1648-.777832.24805-1.224609.24805-.523682 0-.999267-.11938-1.427735-.35742-.428466-.23803-.759766-.56689-.99414-.98438-.234376-.41748-.351563-.89526-.351563-1.43359 0-.77271.263672-1.42188.791016-1.94922.531006-.52735 1.182373-.79101 1.955078-.79101.915527 0 1.740234.38549 2.472656 1.1582l1.076172-1.02734c-.446777-.52003-.980713-.91919-1.599609-1.20118-.615234-.28198-1.255371-.42382-1.921875-.42382zm31.244136 0c-.78369 0-1.51611.18945-2.19726.57031-.67749.38086-1.20019.8855-1.56641 1.51172-.362546.62622-.542966 1.34277-.542966 2.14843 0 1.24512.398926 2.26612 1.197266 3.06446.802.79468 1.82984 1.1914 3.08594 1.1914.68115 0 1.28735-.11059 1.81836-.33398.531-.22705 1.09643-.63257 1.69336-1.21484l-1.04493-1.0879c-.44312.43946-.84887.74366-1.21875.91211-.36987.1648-.77783.24805-1.22461.24805-.52368 0-1.00122-.11938-1.42968-.35742-.42847-.23803-.75977-.56689-.99414-.98438-.23438-.41748-.35157-.89526-.35157-1.43359 0-.77271.26367-1.42188.79102-1.94922.531-.52735 1.18432-.79101 1.95703-.79101.91553 0 1.73828.38549 2.4707 1.1582l1.07618-1.02734c-.44678-.52003-.97876-.91919-1.59766-1.20118-.61523-.28198-1.25538-.42382-1.92188-.42382zm26.53516 0c-.62622 0-1.15356.20068-1.58203.60351-.42481.39917-.63672.87915-.63672 1.43945 0 .38818.12842.77808.38477 1.16993.25634.38818.82226.94238 1.70117 1.66015.46142.3772.76098.65674.89648.83985.1355.1831.20313.36572.20313.54882 0 .20142-.0901.3794-.26953.53321-.17945.15381-.4004.23047-.66407.23047-.50537 0-.95361-.3562-1.34179-1.07032l-1.28907.7793c.30396.60425.66699 1.0481 1.0918 1.33008.42847.28198.93091.42187 1.50586.42187.73608 0 1.33325-.2163 1.79102-.64843.45776-.43213.68554-.97974.68554-1.64258 0-.34058-.0654-.65186-.19726-.9375-.12818-.28931-.34693-.59327-.65821-.90821-.12451-.12818-.48047-.43701-1.0664-.92773-.62622-.53101-1.00244-.87598-1.12695-1.03711-.0916-.12085-.13672-.24927-.13672-.38476 0-.1355.0652-.25709.19336-.36329.12817-.10986.29272-.16406.49414-.16406.41382 0 .81957.27735 1.21875.83399l1.13671-1.00391c-.4248-.49439-.81934-.83667-1.18554-1.02344-.36255-.18676-.74561-.27929-1.14844-.27929zm50.43945 0c-.62622 0-1.15356.20068-1.58203.60351-.4248.39917-.63672.87915-.63672 1.43945 0 .38818.12842.77808.38477 1.16993.25635.38818.82422.94238 1.70312 1.66015.46142.3772.75904.65674.89454.83985.1355.1831.20312.36572.20312.54882 0 .20142-.0881.3794-.26758.53321-.17944.15381-.40234.23047-.66601.23047-.50538 0-.95167-.3562-1.33985-1.07032l-1.29101.7793c.30396.60425.66895 1.0481 1.09375 1.33008.42846.28198.92895.42187 1.5039.42187.73609 0 1.33326-.2163 1.79102-.64843.45777-.43213.6875-.97974.6875-1.64258 0-.34058-.0654-.65186-.19727-.9375-.12817-.28931-.34887-.59327-.66015-.90821-.12451-.12818-.48047-.43701-1.06641-.92773-.62622-.53101-1.00049-.87598-1.125-1.03711-.0916-.12085-.13672-.24926-.13672-.38476 0-.13551.0632-.25709.19141-.36329.12817-.10986.29272-.16406.49414-.16406.41382 0 .82154.27735 1.2207.83399l1.13672-1.00391c-.42481-.49439-.82129-.83667-1.1875-1.02344-.36255-.18676-.7456-.27929-1.14844-.27929zm4.36719 0l.30274 2.76757h.85742l.30078-2.76757h-1.46094zm28.64063 0c-.62622 0-1.15357.20068-1.58203.60351-.42481.39917-.63868.87915-.63868 1.43945 0 .38818.12842.77808.38477 1.16993.25635.38818.82422.94238 1.70312 1.66015.46143.3772.76099.65674.89649.83985.1355.1831.20312.36572.20312.54882 0 .20142-.0901.3794-.26953.53321-.17944.15381-.40234.23047-.66601.23047-.50538 0-.95167-.3562-1.33985-1.07032l-1.29101.7793c.30396.60425.66895 1.0481 1.09375 1.33008.42846.28198.9309.42187 1.50586.42187.73608 0 1.3313-.2163 1.78906-.64843.45777-.43213.6875-.97974.6875-1.64258 0-.34058-.0654-.65186-.19727-.9375-.12817-.28931-.34887-.59327-.66015-.90821-.12451-.12818-.47852-.43701-1.06446-.92773-.62622-.53101-1.00244-.87598-1.12695-1.03711-.0915-.12085-.13672-.24926-.13672-.38476 0-.13551.0632-.25709.19141-.36329.12817-.10986.29272-.16406.49414-.16406.41382 0 .82154.27735 1.2207.83399l1.13672-1.00391c-.42481-.49439-.82129-.83667-1.1875-1.02344-.36255-.18676-.74365-.27929-1.14648-.27929zM0 239.8125v1.51562h1.4355469v6.56446h1.5585937v-6.56446h1.4726563v-1.51562H0zm6.3554688 0v8.08008h1.5605468v-3.54297h2.7031254v3.54297h1.554687v-8.08008h-1.554687v3.04883H7.9160156v-3.04883H6.3554688zm8.4980472 0v8.08008h4.410156v-1.50977h-2.882813v-2.12695h2.882813v-1.47656h-2.882813v-1.46094h2.882813v-1.50586h-4.410156zm10.65625 0v8.08008h1.537109v-3.42188c.783691 0 1.324463-.0427 1.621094-.12695.505371-.14649.904297-.40576 1.197265-.7793.296631-.37354.445313-.84229.445313-1.40625 0-.50903-.112793-.94408-.339844-1.30664-.223389-.3662-.531982-.62988-.923828-.79101-.388183-.1648-1.023681-.24805-1.90625-.24805h-1.630859zm17.439453 0v8.08008h3.779297v-1.4668h-2.240235v-6.61328h-1.539062zm5.207031 0l2.373047 4.58203v3.49805h1.548828v-3.49805l2.363281-4.58203h-1.632812l-1.494141 2.90039-1.503906-2.90039H48.15625zm7.607422 0v1.51562h1.433594v6.56446h1.560546v-6.56446h1.472657v-1.51562h-4.466797zm6.367187 0v8.08008h4.410157v-1.50977H63.65625v-2.12695h2.884766v-1.47656H63.65625v-1.46094h2.884766v-1.50586h-4.410157zm16.279297 0v8.08008h1.560547v-3.54297h2.703125v3.54297h1.554688v-8.08008h-1.554688v3.04883h-2.703125v-3.04883h-1.560547zm8.498047 0v8.08008h1.539063v-5.30078l3.458984 5.30078h1.478516v-8.08008h-1.53711v5.31836l-3.466797-5.31836h-1.472656zm9.052735 0v8.08008h1.527343v-8.08008h-1.527343zm16.160152 0l-3.11523 8.08008h1.59961l.6582-1.66406h3.29688l.63086 1.66406h1.59765l-3.10742-8.08008h-1.56055zm6.70703 0v8.08008h3.7793v-1.4668h-2.24219v-6.61328h-1.53711zm15.6543 0v1.51562h1.4336v6.56446h1.55859v-6.56446h1.47266v-1.51562h-4.46485zm6.30469 0v4.81836c0 .96313.0925 1.64624.2793 2.05273.18676.40284.49756.74072.92968 1.01172.4358.26734.94531.40039 1.53125.40039.44678 0 .83887-.0698 1.17578-.20898.33692-.14283.63428-.35938.89063-.65234.26001-.29297.43579-.59717.52734-.91211.0916-.31495.13672-.87842.13672-1.69141v-4.81836h-1.54297v5.03711c0 .54199-.0383.90943-.11523 1.10351-.0732.19044-.2085.34815-.40625.47266-.19409.12451-.42627.1875-.69727.1875-.25634 0-.47705-.0542-.66015-.16406-.17945-.11353-.31006-.26441-.39063-.45117-.0769-.18677-.11523-.50464-.11523-.95508v-5.23047h-1.54297zm8.10742 0v8.08008h1.85156c1.04736 0 1.78223-.0654 2.20703-.19727.42481-.13184.8191-.37061 1.18165-.71484.36621-.34424.65234-.7749.85742-1.29492.20874-.52368.3125-1.09815.3125-1.72071 0-.87524-.18482-1.6394-.55469-2.29492-.36987-.65552-.84082-1.12866-1.41211-1.41797-.57129-.29296-1.4436-.43945-2.61914-.43945h-1.82422zm8.72852 0v8.08008h4.41015v-1.50977h-2.88281v-2.12695h2.88281v-1.47656h-2.88281v-1.46094h2.88281v-1.50586h-4.41015zm6.68359 0v8.08008h1.53906v-5.30078l3.46094 5.30078h1.47656v-8.08008h-1.53711v5.31836l-3.46679-5.31836h-1.47266zm8.36719 0v1.51562h1.43359v6.56446h1.5586v-6.56446h1.47265v-1.51562h-4.46484zm21.1289 0l-1.39453 8.08008h1.5l.88477-5.10352 1.69726 5.10352h1.35547l1.72071-5.10352.86718 5.10352h1.48243l-1.36133-8.08008h-1.48242l-1.89649 5.63672-1.86719-5.63672h-1.50586zm10.13477 0v4.81836c0 .96313.0945 1.64624.28125 2.05273.18677.40284.49561.74072.92773 1.01172.4358.26734.94727.40039 1.53321.40039.44677 0 .83887-.0698 1.17578-.20898.33691-.14283.63232-.35938.88867-.65234.26001-.29297.43579-.59717.52734-.91211.0916-.31495.13868-.87842.13868-1.69141v-4.81836h-1.54493v5.03711c0 .54199-.0383.90943-.11523 1.10351-.0732.19044-.2085.34815-.40625.47266-.19409.12451-.42627.1875-.69727.1875-.25635 0-.47705-.0542-.66015-.16406-.17945-.11353-.30811-.26441-.38867-.45117-.0769-.18677-.11524-.50464-.11524-.95508v-5.23047h-1.54492zm14.79297 0v8.08008h4.41015v-1.50977h-2.88281v-2.12695h2.88281v-1.47656h-2.88281v-1.46094h2.88281v-1.50586h-4.41015zm6.62305 0v4.81836c0 .96313.0945 1.64624.28125 2.05273.18676.40284.4956.74072.92773 1.01172.43579.26734.94727.40039 1.5332.40039.44678 0 .83887-.0698 1.17578-.20898.33692-.14283.63233-.35938.88868-.65234.26001-.29297.43579-.59717.52734-.91211.0916-.31495.13867-.87842.13867-1.69141v-4.81836h-1.54492v5.03711c0 .54199-.0383.90943-.11523 1.10351-.0732.19044-.2085.34815-.40625.47266-.1941.12451-.42628.1875-.69727.1875-.25635 0-.4751-.0542-.6582-.16406-.17945-.11353-.31006-.26441-.39063-.45117-.0769-.18677-.11523-.50464-.11523-.95508v-5.23047h-1.54492zm8.88281 0l-1.39453 8.08008h1.5l.88281-5.10352 1.69727 5.10352h1.35742l1.71875-5.10352.86914 5.10352h1.48242l-1.36133-8.08008h-1.48437l-1.89453 5.63672-1.86719-5.63672h-1.50586zm-197.773439 1.30273c.739746 0 1.366455.26612 1.882812.80079.516357.531.775391 1.18213.775391 1.95117 0 .7727-.256836 1.42188-.769532 1.94922-.512695.52734-1.132568.79101-1.861328.79101-.644531 0-1.216797-.20288-1.714843-.60937-.64087-.52002-.960938-1.22754-.960938-2.1211 0-.802.254639-1.46241.763672-1.98242.509033-.52002 1.137695-.7793 1.884766-.7793zm113.964839.17969h.52149c.95581 0 1.6499.21387 2.08203.63867.47974.47242.71875 1.13721.71875 1.99414 0 .55664-.0994 1.02539-.30078 1.40625-.20141.38086-.46264.65138-.78125.8125-.31494.16114-.82423.24219-1.52735.24219h-.71289v-5.09375zm-123.380855.0234h.435547c.476074 0 .800781.052.976562.1582.2417.14282.363282.37036.363282.68164 0 .17944-.04492.33277-.132813.46094-.08423.12451-.201416.2146-.351562.26953-.150147.0549-.41626.082-.800782.082h-.490234v-1.65234zm85.865235.63672l1.07031 2.77344h-2.14648l1.07617-2.77344z" style="-inkscape-font-specification:'Century Gothic Bold'" font-weight="bold" font-size="11.25" font-family="Century Gothic" letter-spacing=".83999997" word-spacing="0"/>
</svg>
